<svg id="Layer_1" data-name="Layer 1" xmlns="http://www.w3.org/2000/svg" viewBox="0 0 893.6 163.72"><defs><style>.cls-1{fill:#a28b77;}</style></defs><polygon class="cls-1" points="32.75 32.75 32.75 163.72 0 163.72 0 65.49 32.75 32.75"/><polygon class="cls-1" points="313.45 65.49 313.45 98.24 215.22 98.24 182.47 65.49 182.47 32.75 215.22 32.75 215.22 65.49 313.45 65.49"/><polygon class="cls-1" points="346.19 130.99 346.19 163.72 182.47 163.72 182.47 98.24 215.22 98.24 215.22 130.99 346.19 130.99"/><polygon class="cls-1" points="528.67 98.24 528.67 163.72 495.92 163.72 495.92 98.24 397.68 98.24 364.94 65.49 364.94 0 397.68 0 397.68 65.49 495.92 65.49 528.67 98.24"/><polygon class="cls-1" points="397.68 98.24 397.68 163.72 364.94 163.72 364.94 130.99 397.68 98.24"/><polygon class="cls-1" points="893.6 32.75 893.6 65.49 860.85 65.49 860.85 32.75 762.62 32.75 762.62 65.49 729.88 65.49 729.88 32.75 762.62 0 860.85 0 893.6 32.75"/><polygon class="cls-1" points="893.6 98.24 893.6 163.72 860.85 163.72 860.85 98.24 762.62 98.24 762.62 163.72 729.88 163.72 729.88 98.24 762.62 65.49 860.85 65.49 893.6 98.24"/><polygon class="cls-1" points="163.72 32.75 163.72 163.72 130.98 163.72 130.98 32.75 32.75 32.75 0 0 130.98 0 163.72 32.75"/><polygon class="cls-1" points="346.19 0 346.19 32.75 215.22 32.75 182.47 0 346.19 0"/><polygon class="cls-1" points="528.67 0 528.67 32.75 495.92 65.49 495.92 0 528.67 0"/><polygon class="cls-1" points="711.13 32.75 580.15 32.75 547.4 0 678.38 0 711.13 32.75"/><polygon class="cls-1" points="711.13 32.75 711.13 130.99 678.38 163.72 547.4 163.72 547.4 65.49 580.15 32.75 580.15 130.99 678.38 130.99 678.38 65.49 711.13 32.75"/></svg>